<?xml version="1.0" encoding="UTF-8"?>
<svg width="16pt" height="16pt" version="1.0" viewBox="0 0 16 16" xmlns="http://www.w3.org/2000/svg">
 <g transform="matrix(.14119 0 0 .14119 50.889 -20.69)">
  <g transform="matrix(.26458 0 0 .26458 -374.65 136.65)">
   <text transform="scale(.98188 1.0184)" x="350.03415" y="288.53409" fill="#000000" font-family="Tahoma" font-size="149.65px" font-weight="bold" letter-spacing="0px" stroke-width="1.2068" word-spacing="0px" style="font-feature-settings:normal;font-variant-caps:normal;font-variant-ligatures:normal;font-variant-numeric:normal;line-height:1.25" xml:space="preserve"><tspan x="350.03415" y="288.53409" fill="#000000" stroke-width="1.2068">.4</tspan></text>
  </g>
  <g transform="matrix(.26458 0 0 .26458 -374.65 136.65)">
   <path class="st0" d="m164 176.5c22.9-23 50.5-38.8 82.3-40v-68.7c-6.6 0.4-13.1-0.3-19.5 0.4-0.2 0-0.3 0.1-0.5 0.1-7.1 0.9-14.2 1.8-21.1 3.4-4.9 1.1-9.7 2.6-14.4 4.3-22.8 7.2-43.8 18.8-63 34.7v-34.2h-72.1v358.3h72.1v-16.6s0.1 0.1 0.2 0.1v-139.6 0.1c-0.1-2.7-0.1-5.2-0.2-8.1v-8.3c0.5-33.5 12.4-62.1 36.2-85.9z"/>
  </g>
  <path class="st1" d="m-282.23 219.33c-2.2754 2.7252-3.7835 4.4979-4.5244 5.2917-5.9796 5.9002-13.15 8.8635-21.564 8.8635-7.7788 0-13.15-1.3229-16.113-3.9158l46.461-46.461 8.8635-8.9429c-2.6723-3.0162-4.2862-4.8154-4.8683-5.371-1.3758-1.3494-2.7517-2.6458-4.1804-3.8364-7.6729-6.1648-16.536-9.4192-26.458-10.107v17.992c4.789 0.23812 8.0433 0.9525 9.6573 2.196l-41.169 41.275v26.538c8.0962 5.8473 17.304 8.9429 27.781 8.9429 13.414 0 24.871-4.736 34.369-14.235 1.9315-1.9315 5.0535-5.8738 9.3662-11.853z"/>
 </g>
</svg>
